<svg version="1.1" xmlns="http://www.w3.org/2000/svg" xmlns:xlink="http://www.w3.org/1999/xlink" x="0px" y="0px" width="459px"
	 height="459px" viewBox="0 0 459 459" style="overflow:visible;enable-background:new 0 0 459 459;" xml:space="preserve">
<g>
	<ellipse fill="#fff" cx="229.5" cy="167.1" rx="71.5" ry="84"/>
	<circle fill="#fff" cx="229.5" cy="229.5" r="229.5"/>
	<path fill="#8a2be2" d="M375.9,349.9c-9-44.7-39.7-82-81.1-101.5c-17.9,16.9-40.9,26.6-65.3,26.6c-25.1,0-48-10.2-65.5-26.8
		c-41.5,19.3-72.1,56.5-80.9,101.6c-8.4-10.2-15.7-21.1-21.7-32.7c9.1-24.1,23.8-46,43.4-64.4c12.1-11.4,25.7-20.9,40.3-28.5
		c-11.1-18.6-17-40.5-17-63.3c0-63.4,45.6-114,101.5-114c56,0,101.5,50.7,101.5,114c0,22.9-6,44.8-17.1,63.4
		c38.4,19.9,68.4,52.9,83.6,92.8C391.5,328.8,384.3,339.7,375.9,349.9z"/>
	<ellipse fill="#fff" cx="229.5" cy="159.3" rx="71.5" ry="84"/>
</g>
</svg>
